# xmcd CD database file generated by Grip 3.3.1
# 
# Track frame offsets:
#       150
#       46277
#       66452
#       123670
#       189207
# 
# Disc length: 3411 seconds
# 
# Revision: 10
# Processed by: cddbd v1.5.2PL0 Copyright (c) Steve Scherf et al.
# Submitted via: Grip 3.3.1
# 
DISCID=440d5105
DTITLE=Johann Sebastian Bach - Die Orgelmeisterwerke
DYEAR=1983
DGENRE=Classical
TTITLE0=Toccata con Fuge d-Moll, BWV 565 (Orgel der Gedächtniskirche Stu
TTITLE0=ttgart: Helmuth Rilling)
TTITLE1=Fuge g-Moll, BWV 578 (Orgel der Gedächtniskirche Stuttgart: Helm
TTITLE1=uth Rilling)
TTITLE2=Praeludium und Fuge h-Moll, BWV 544 (Orgel der Gedächtniskirche 
TTITLE2=Stuttgart: Helmuth Rilling)
TTITLE3=Fantasie und Fuge g-Moll, BWV 542 (Orgel der Gedächtniskirche St
TTITLE3=uttgart: Helmuth Rilling)
TTITLE4=Passacaglia und Fuge c-Moll, BWV 582 (Orgel der Gedächtniskirche
TTITLE4=Stuttgart: Helmuth Rilling)
EXTD=YEAR: 1983
EXTT0=
EXTT1=
EXTT2=
EXTT3=
EXTT4=
PLAYORDER=
